<svg xmlns="http://www.w3.org/2000/svg" viewBox="0 0 120 120" role="img" aria-label="orbiting satellite">
  <defs>
    <linearGradient id="panel" x1="0" x2="1"><stop offset="0" stop-color="#1c3dff"/><stop offset="1" stop-color="#6d8cff"/></linearGradient>
    <linearGradient id="core" x1="0" x2="1" y1="0" y2="1"><stop offset="0" stop-color="#fafafa"/><stop offset="1" stop-color="#a7adb4"/></linearGradient>
    <filter id="shadow" x="-30%" y="-30%" width="160%" height="160%"><feDropShadow dx="0" dy="8" stdDeviation="5" flood-color="#000" flood-opacity=".25"/></filter>
  </defs>
  <g filter="url(#shadow)" transform="rotate(24 60 60)">
    <rect x="7" y="47" width="38" height="26" rx="3" fill="url(#panel)" stroke="#10183e" stroke-width="2"/>
    <rect x="75" y="47" width="38" height="26" rx="3" fill="url(#panel)" stroke="#10183e" stroke-width="2"/>
    <path d="M45 60h12M63 60h12" stroke="#eaf4ff" stroke-width="3" stroke-linecap="round"/>
    <rect x="47" y="37" width="26" height="46" rx="7" fill="url(#core)" stroke="#17202b" stroke-width="3"/>
    <circle cx="60" cy="60" r="13" fill="#d6d8da" stroke="#17202b" stroke-width="3"/>
    <path d="M58 49v23M49 61h23" stroke="#263746" stroke-width="3" stroke-linecap="round"/>
    <path d="M50 37 39 23h21l8 14Z" fill="#d9da69" stroke="#17202b" stroke-width="2"/>
    <path d="M17 55h26M17 65h26M84 55h26M84 65h26" stroke="#90a8ff" stroke-width="1.5" opacity=".9"/>
    <path d="M26 47v26M95 47v26" stroke="#0e1740" stroke-width="1.7" opacity=".8"/>
  </g>
</svg>
